# xmcd
#
# Track frame offsets:
#	150
#	15282
#	35360
#	46857
#	59160
#	70635
#	88080
#	101140
#	112045
#	124487
#	137105
#	148382
#	162912
#	174307
#	187512
#	198562
#	211970
#	230860
#
# Disc length: 3222 seconds
#
# Revision: 0
# Processed by: cddbd v1.4PL0 Copyright (c) Steve Scherf et al.
# Submitted via: EasyCDDAExtractor 4.6.9.1
#
DISCID=090c9412
DTITLE=John Lee Hooker - The Masters - Disc 2
DYEAR=1997
DGENRE=Blues
TTITLE0=Freight Train To Be My Friend
TTITLE1=I Left My Baby
TTITLE2=Hard Headed Woman
TTITLE3=I'm Mad Again
TTITLE4=What Do You Say
TTITLE5=Blues Before Sunrise
TTITLE6=Lost a Good Girl
TTITLE7=She's Mine (Keep Your Hands to Yourself)
TTITLE8=I Got a Letter
TTITLE9=Drug Store Woman
TTITLE10=Good Rockin' Mama
TTITLE11=My Grinding Mill
TTITLE12=I Want to Ramble
TTITLE13=Sadie Mae
TTITLE14=I Want to Shout
TTITLE15=Don't Look Back
TTITLE16=You're Mellow
TTITLE17=Send Me Your Pillow
EXTD=
EXTT0=
EXTT1=
EXTT2=
EXTT3=
EXTT4=
EXTT5=
EXTT6=
EXTT7=
EXTT8=
EXTT9=
EXTT10=
EXTT11=
EXTT12=
EXTT13=
EXTT14=
EXTT15=
EXTT16=
EXTT17=
PLAYORDER=
